<mxfile host="app.diagrams.net" modified="2023-11-22T18:00:02.941Z" agent="Mozilla/5.0 (Windows NT 10.0; Win64; x64) AppleWebKit/537.36 (KHTML, like Gecko) Chrome/116.0.5845.660 YaBrowser/23.9.5.660 Yowser/2.5 Safari/537.36" etag="uPy25TJuU2Uk1zkWCwEx" version="22.1.3" type="github">
  <diagram name="Страница — 1" id="AhU471OutzWVE26pQ0Ev">
    <mxGraphModel dx="1877" dy="1736" grid="1" gridSize="10" guides="1" tooltips="1" connect="1" arrows="1" fold="1" page="1" pageScale="1" pageWidth="827" pageHeight="1169" background="#050505" math="0" shadow="0">
      <root>
        <mxCell id="0" />
        <mxCell id="1" parent="0" />
        <mxCell id="ywmePfMpzFRgb4OI0cGg-9" value="" style="edgeStyle=orthogonalEdgeStyle;rounded=0;orthogonalLoop=1;jettySize=auto;html=1;labelBackgroundColor=none;strokeColor=#FFFFFF;fontColor=default;" parent="1" source="ywmePfMpzFRgb4OI0cGg-3" target="ywmePfMpzFRgb4OI0cGg-8" edge="1">
          <mxGeometry relative="1" as="geometry" />
        </mxCell>
        <mxCell id="ywmePfMpzFRgb4OI0cGg-115" value="" style="edgeStyle=orthogonalEdgeStyle;rounded=0;orthogonalLoop=1;jettySize=auto;html=1;labelBackgroundColor=none;strokeColor=#FFFFFF;fontColor=default;" parent="1" source="ywmePfMpzFRgb4OI0cGg-3" target="ywmePfMpzFRgb4OI0cGg-114" edge="1">
          <mxGeometry relative="1" as="geometry" />
        </mxCell>
        <mxCell id="ywmePfMpzFRgb4OI0cGg-3" value="Маршруты" style="ellipse;whiteSpace=wrap;html=1;labelBackgroundColor=none;fillColor=#EEEEEE;strokeColor=#FFFFFF;fontColor=#1A1A1A;" parent="1" vertex="1">
          <mxGeometry x="359" y="470" width="121" height="50" as="geometry" />
        </mxCell>
        <mxCell id="ywmePfMpzFRgb4OI0cGg-13" value="" style="edgeStyle=orthogonalEdgeStyle;rounded=0;orthogonalLoop=1;jettySize=auto;html=1;labelBackgroundColor=none;strokeColor=#FFFFFF;fontColor=default;" parent="1" source="ywmePfMpzFRgb4OI0cGg-8" target="ywmePfMpzFRgb4OI0cGg-12" edge="1">
          <mxGeometry relative="1" as="geometry">
            <Array as="points">
              <mxPoint x="700" y="495" />
              <mxPoint x="700" y="240" />
            </Array>
          </mxGeometry>
        </mxCell>
        <mxCell id="ywmePfMpzFRgb4OI0cGg-23" value="" style="edgeStyle=orthogonalEdgeStyle;rounded=0;orthogonalLoop=1;jettySize=auto;html=1;labelBackgroundColor=none;strokeColor=#FFFFFF;fontColor=default;" parent="1" source="ywmePfMpzFRgb4OI0cGg-8" target="ywmePfMpzFRgb4OI0cGg-22" edge="1">
          <mxGeometry relative="1" as="geometry">
            <Array as="points">
              <mxPoint x="700" y="495" />
              <mxPoint x="700" y="420" />
            </Array>
          </mxGeometry>
        </mxCell>
        <mxCell id="ywmePfMpzFRgb4OI0cGg-25" value="" style="edgeStyle=orthogonalEdgeStyle;rounded=0;orthogonalLoop=1;jettySize=auto;html=1;labelBackgroundColor=none;strokeColor=#FFFFFF;fontColor=default;" parent="1" source="ywmePfMpzFRgb4OI0cGg-8" target="ywmePfMpzFRgb4OI0cGg-24" edge="1">
          <mxGeometry relative="1" as="geometry">
            <Array as="points">
              <mxPoint x="700" y="495" />
              <mxPoint x="700" y="585" />
            </Array>
          </mxGeometry>
        </mxCell>
        <mxCell id="ywmePfMpzFRgb4OI0cGg-113" value="" style="edgeStyle=orthogonalEdgeStyle;rounded=0;orthogonalLoop=1;jettySize=auto;html=1;labelBackgroundColor=none;strokeColor=#FFFFFF;fontColor=default;" parent="1" source="ywmePfMpzFRgb4OI0cGg-8" target="ywmePfMpzFRgb4OI0cGg-112" edge="1">
          <mxGeometry relative="1" as="geometry">
            <Array as="points">
              <mxPoint x="700" y="495" />
              <mxPoint x="700" y="1090" />
            </Array>
          </mxGeometry>
        </mxCell>
        <mxCell id="ywmePfMpzFRgb4OI0cGg-119" value="" style="edgeStyle=orthogonalEdgeStyle;rounded=0;orthogonalLoop=1;jettySize=auto;html=1;labelBackgroundColor=none;strokeColor=#FFFFFF;fontColor=default;" parent="1" source="ywmePfMpzFRgb4OI0cGg-8" target="ywmePfMpzFRgb4OI0cGg-118" edge="1">
          <mxGeometry relative="1" as="geometry">
            <Array as="points">
              <mxPoint x="700" y="495" />
              <mxPoint x="700" y="110" />
            </Array>
          </mxGeometry>
        </mxCell>
        <mxCell id="ywmePfMpzFRgb4OI0cGg-8" value="Интерфейс" style="whiteSpace=wrap;html=1;labelBackgroundColor=none;fillColor=#EEEEEE;strokeColor=#FFFFFF;fontColor=#1A1A1A;" parent="1" vertex="1">
          <mxGeometry x="560.5" y="465" width="109.5" height="60" as="geometry" />
        </mxCell>
        <mxCell id="ywmePfMpzFRgb4OI0cGg-38" value="" style="edgeStyle=orthogonalEdgeStyle;rounded=0;orthogonalLoop=1;jettySize=auto;html=1;labelBackgroundColor=none;strokeColor=#FFFFFF;fontColor=default;" parent="1" source="ywmePfMpzFRgb4OI0cGg-12" target="ywmePfMpzFRgb4OI0cGg-37" edge="1">
          <mxGeometry relative="1" as="geometry">
            <Array as="points">
              <mxPoint x="850" y="240" />
              <mxPoint x="850" y="210" />
            </Array>
          </mxGeometry>
        </mxCell>
        <mxCell id="ywmePfMpzFRgb4OI0cGg-51" value="" style="edgeStyle=orthogonalEdgeStyle;rounded=0;orthogonalLoop=1;jettySize=auto;html=1;entryX=0;entryY=0.5;entryDx=0;entryDy=0;labelBackgroundColor=none;strokeColor=#FFFFFF;fontColor=default;" parent="1" target="ywmePfMpzFRgb4OI0cGg-50" edge="1">
          <mxGeometry relative="1" as="geometry">
            <mxPoint x="850" y="240.04347826086962" as="sourcePoint" />
            <mxPoint x="910" y="290" as="targetPoint" />
            <Array as="points">
              <mxPoint x="850" y="270" />
            </Array>
          </mxGeometry>
        </mxCell>
        <mxCell id="ywmePfMpzFRgb4OI0cGg-12" value="Время начала поездки" style="rounded=1;whiteSpace=wrap;html=1;labelBackgroundColor=none;fillColor=#EEEEEE;strokeColor=#FFFFFF;fontColor=#1A1A1A;" parent="1" vertex="1">
          <mxGeometry x="720" y="210" width="120" height="60" as="geometry" />
        </mxCell>
        <mxCell id="ywmePfMpzFRgb4OI0cGg-54" value="" style="edgeStyle=orthogonalEdgeStyle;rounded=0;orthogonalLoop=1;jettySize=auto;html=1;labelBackgroundColor=none;strokeColor=#FFFFFF;fontColor=default;" parent="1" source="ywmePfMpzFRgb4OI0cGg-22" target="ywmePfMpzFRgb4OI0cGg-53" edge="1">
          <mxGeometry relative="1" as="geometry">
            <Array as="points">
              <mxPoint x="850" y="420" />
              <mxPoint x="850" y="390" />
            </Array>
          </mxGeometry>
        </mxCell>
        <mxCell id="ywmePfMpzFRgb4OI0cGg-60" value="" style="edgeStyle=orthogonalEdgeStyle;rounded=0;orthogonalLoop=1;jettySize=auto;html=1;labelBackgroundColor=none;strokeColor=#FFFFFF;fontColor=default;" parent="1" source="ywmePfMpzFRgb4OI0cGg-22" target="ywmePfMpzFRgb4OI0cGg-59" edge="1">
          <mxGeometry relative="1" as="geometry">
            <Array as="points">
              <mxPoint x="850" y="420" />
              <mxPoint x="850" y="450" />
            </Array>
          </mxGeometry>
        </mxCell>
        <mxCell id="ywmePfMpzFRgb4OI0cGg-22" value="Маршрутная панель" style="rounded=1;whiteSpace=wrap;html=1;labelBackgroundColor=none;fillColor=#EEEEEE;strokeColor=#FFFFFF;fontColor=#1A1A1A;" parent="1" vertex="1">
          <mxGeometry x="720" y="390" width="120" height="60" as="geometry" />
        </mxCell>
        <mxCell id="ywmePfMpzFRgb4OI0cGg-68" value="" style="edgeStyle=orthogonalEdgeStyle;rounded=0;orthogonalLoop=1;jettySize=auto;html=1;labelBackgroundColor=none;strokeColor=#FFFFFF;fontColor=default;" parent="1" source="ywmePfMpzFRgb4OI0cGg-24" target="ywmePfMpzFRgb4OI0cGg-67" edge="1">
          <mxGeometry relative="1" as="geometry">
            <Array as="points">
              <mxPoint x="850" y="585" />
              <mxPoint x="850" y="530" />
            </Array>
          </mxGeometry>
        </mxCell>
        <mxCell id="ywmePfMpzFRgb4OI0cGg-70" value="" style="edgeStyle=orthogonalEdgeStyle;rounded=0;orthogonalLoop=1;jettySize=auto;html=1;labelBackgroundColor=none;strokeColor=#FFFFFF;fontColor=default;" parent="1" source="ywmePfMpzFRgb4OI0cGg-24" target="ywmePfMpzFRgb4OI0cGg-69" edge="1">
          <mxGeometry relative="1" as="geometry" />
        </mxCell>
        <mxCell id="ywmePfMpzFRgb4OI0cGg-72" value="" style="edgeStyle=orthogonalEdgeStyle;rounded=0;orthogonalLoop=1;jettySize=auto;html=1;labelBackgroundColor=none;strokeColor=#FFFFFF;fontColor=default;" parent="1" source="ywmePfMpzFRgb4OI0cGg-24" target="ywmePfMpzFRgb4OI0cGg-71" edge="1">
          <mxGeometry relative="1" as="geometry">
            <Array as="points">
              <mxPoint x="850" y="585" />
              <mxPoint x="850" y="710" />
            </Array>
          </mxGeometry>
        </mxCell>
        <mxCell id="ywmePfMpzFRgb4OI0cGg-24" value="Вид транспорта" style="rounded=1;whiteSpace=wrap;html=1;labelBackgroundColor=none;fillColor=#EEEEEE;strokeColor=#FFFFFF;fontColor=#1A1A1A;" parent="1" vertex="1">
          <mxGeometry x="720" y="555" width="120" height="60" as="geometry" />
        </mxCell>
        <mxCell id="ywmePfMpzFRgb4OI0cGg-234" value="" style="edgeStyle=orthogonalEdgeStyle;rounded=0;orthogonalLoop=1;jettySize=auto;html=1;labelBackgroundColor=none;strokeColor=#FFFFFF;fontColor=default;" parent="1" source="ywmePfMpzFRgb4OI0cGg-37" target="ywmePfMpzFRgb4OI0cGg-233" edge="1">
          <mxGeometry relative="1" as="geometry" />
        </mxCell>
        <mxCell id="ywmePfMpzFRgb4OI0cGg-37" value="Часы" style="rounded=1;whiteSpace=wrap;html=1;labelBackgroundColor=none;fillColor=#EEEEEE;strokeColor=#FFFFFF;fontColor=#1A1A1A;" parent="1" vertex="1">
          <mxGeometry x="860" y="190" width="90" height="40" as="geometry" />
        </mxCell>
        <mxCell id="ywmePfMpzFRgb4OI0cGg-236" value="" style="edgeStyle=orthogonalEdgeStyle;rounded=0;orthogonalLoop=1;jettySize=auto;html=1;labelBackgroundColor=none;strokeColor=#FFFFFF;fontColor=default;" parent="1" source="ywmePfMpzFRgb4OI0cGg-50" target="ywmePfMpzFRgb4OI0cGg-235" edge="1">
          <mxGeometry relative="1" as="geometry" />
        </mxCell>
        <mxCell id="ywmePfMpzFRgb4OI0cGg-50" value="Минуты" style="rounded=1;whiteSpace=wrap;html=1;labelBackgroundColor=none;fillColor=#EEEEEE;strokeColor=#FFFFFF;fontColor=#1A1A1A;" parent="1" vertex="1">
          <mxGeometry x="860" y="250" width="90" height="40" as="geometry" />
        </mxCell>
        <mxCell id="ywmePfMpzFRgb4OI0cGg-229" value="" style="edgeStyle=orthogonalEdgeStyle;rounded=0;orthogonalLoop=1;jettySize=auto;html=1;labelBackgroundColor=none;strokeColor=#FFFFFF;fontColor=default;" parent="1" source="ywmePfMpzFRgb4OI0cGg-53" target="ywmePfMpzFRgb4OI0cGg-228" edge="1">
          <mxGeometry relative="1" as="geometry" />
        </mxCell>
        <mxCell id="ywmePfMpzFRgb4OI0cGg-53" value="Откуда" style="whiteSpace=wrap;html=1;rounded=1;labelBackgroundColor=none;fillColor=#EEEEEE;strokeColor=#FFFFFF;fontColor=#1A1A1A;" parent="1" vertex="1">
          <mxGeometry x="860" y="370" width="90" height="40" as="geometry" />
        </mxCell>
        <mxCell id="ywmePfMpzFRgb4OI0cGg-231" value="" style="edgeStyle=orthogonalEdgeStyle;rounded=0;orthogonalLoop=1;jettySize=auto;html=1;labelBackgroundColor=none;strokeColor=#FFFFFF;fontColor=default;" parent="1" source="ywmePfMpzFRgb4OI0cGg-59" target="ywmePfMpzFRgb4OI0cGg-230" edge="1">
          <mxGeometry relative="1" as="geometry" />
        </mxCell>
        <mxCell id="ywmePfMpzFRgb4OI0cGg-59" value="Куда" style="whiteSpace=wrap;html=1;rounded=1;labelBackgroundColor=none;fillColor=#EEEEEE;strokeColor=#FFFFFF;fontColor=#1A1A1A;" parent="1" vertex="1">
          <mxGeometry x="860" y="430" width="90" height="40" as="geometry" />
        </mxCell>
        <mxCell id="ywmePfMpzFRgb4OI0cGg-67" value="Оптимальный" style="whiteSpace=wrap;html=1;rounded=1;labelBackgroundColor=none;fillColor=#EEEEEE;strokeColor=#FFFFFF;fontColor=#1A1A1A;" parent="1" vertex="1">
          <mxGeometry x="860" y="510" width="90" height="40" as="geometry" />
        </mxCell>
        <mxCell id="ywmePfMpzFRgb4OI0cGg-69" value="Быстрый" style="rounded=1;whiteSpace=wrap;html=1;labelBackgroundColor=none;fillColor=#EEEEEE;strokeColor=#FFFFFF;fontColor=#1A1A1A;" parent="1" vertex="1">
          <mxGeometry x="860" y="565" width="90" height="40" as="geometry" />
        </mxCell>
        <mxCell id="ywmePfMpzFRgb4OI0cGg-88" value="" style="edgeStyle=orthogonalEdgeStyle;rounded=0;orthogonalLoop=1;jettySize=auto;html=1;labelBackgroundColor=none;strokeColor=#FFFFFF;fontColor=default;" parent="1" source="ywmePfMpzFRgb4OI0cGg-71" target="ywmePfMpzFRgb4OI0cGg-87" edge="1">
          <mxGeometry relative="1" as="geometry">
            <Array as="points">
              <mxPoint x="960" y="710" />
            </Array>
          </mxGeometry>
        </mxCell>
        <mxCell id="ywmePfMpzFRgb4OI0cGg-94" value="" style="edgeStyle=orthogonalEdgeStyle;rounded=0;orthogonalLoop=1;jettySize=auto;html=1;labelBackgroundColor=none;strokeColor=#FFFFFF;fontColor=default;" parent="1" source="ywmePfMpzFRgb4OI0cGg-71" target="ywmePfMpzFRgb4OI0cGg-93" edge="1">
          <mxGeometry relative="1" as="geometry">
            <Array as="points">
              <mxPoint x="960" y="710" />
              <mxPoint x="960" y="660" />
            </Array>
          </mxGeometry>
        </mxCell>
        <mxCell id="ywmePfMpzFRgb4OI0cGg-98" value="" style="edgeStyle=orthogonalEdgeStyle;rounded=0;orthogonalLoop=1;jettySize=auto;html=1;labelBackgroundColor=none;strokeColor=#FFFFFF;fontColor=default;" parent="1" source="ywmePfMpzFRgb4OI0cGg-71" target="ywmePfMpzFRgb4OI0cGg-97" edge="1">
          <mxGeometry relative="1" as="geometry">
            <Array as="points">
              <mxPoint x="960" y="710" />
              <mxPoint x="960" y="690" />
            </Array>
          </mxGeometry>
        </mxCell>
        <mxCell id="ywmePfMpzFRgb4OI0cGg-104" value="" style="edgeStyle=orthogonalEdgeStyle;rounded=0;orthogonalLoop=1;jettySize=auto;html=1;labelBackgroundColor=none;strokeColor=#FFFFFF;fontColor=default;" parent="1" source="ywmePfMpzFRgb4OI0cGg-71" target="ywmePfMpzFRgb4OI0cGg-103" edge="1">
          <mxGeometry relative="1" as="geometry">
            <Array as="points">
              <mxPoint x="960" y="710" />
              <mxPoint x="960" y="730" />
            </Array>
          </mxGeometry>
        </mxCell>
        <mxCell id="ywmePfMpzFRgb4OI0cGg-106" value="" style="edgeStyle=orthogonalEdgeStyle;rounded=0;orthogonalLoop=1;jettySize=auto;html=1;labelBackgroundColor=none;strokeColor=#FFFFFF;fontColor=default;" parent="1" source="ywmePfMpzFRgb4OI0cGg-71" target="ywmePfMpzFRgb4OI0cGg-105" edge="1">
          <mxGeometry relative="1" as="geometry">
            <Array as="points">
              <mxPoint x="960" y="710" />
              <mxPoint x="960" y="760" />
            </Array>
          </mxGeometry>
        </mxCell>
        <mxCell id="ywmePfMpzFRgb4OI0cGg-108" value="" style="edgeStyle=orthogonalEdgeStyle;rounded=0;orthogonalLoop=1;jettySize=auto;html=1;labelBackgroundColor=none;strokeColor=#FFFFFF;fontColor=default;" parent="1" source="ywmePfMpzFRgb4OI0cGg-71" target="ywmePfMpzFRgb4OI0cGg-107" edge="1">
          <mxGeometry relative="1" as="geometry">
            <Array as="points">
              <mxPoint x="960" y="710" />
              <mxPoint x="960" y="790" />
            </Array>
          </mxGeometry>
        </mxCell>
        <mxCell id="ywmePfMpzFRgb4OI0cGg-71" value="Свой" style="rounded=1;whiteSpace=wrap;html=1;labelBackgroundColor=none;fillColor=#EEEEEE;strokeColor=#FFFFFF;fontColor=#1A1A1A;" parent="1" vertex="1">
          <mxGeometry x="860" y="690" width="90" height="40" as="geometry" />
        </mxCell>
        <mxCell id="ywmePfMpzFRgb4OI0cGg-87" value="Автомобиль" style="whiteSpace=wrap;html=1;rounded=1;labelBackgroundColor=none;fillColor=#EEEEEE;strokeColor=#FFFFFF;fontColor=#1A1A1A;" parent="1" vertex="1">
          <mxGeometry x="970" y="620" width="80" height="20" as="geometry" />
        </mxCell>
        <mxCell id="ywmePfMpzFRgb4OI0cGg-93" value="Пешком" style="whiteSpace=wrap;html=1;rounded=1;labelBackgroundColor=none;fillColor=#EEEEEE;strokeColor=#FFFFFF;fontColor=#1A1A1A;" parent="1" vertex="1">
          <mxGeometry x="970" y="650" width="80" height="20" as="geometry" />
        </mxCell>
        <mxCell id="ywmePfMpzFRgb4OI0cGg-97" value="Такси" style="whiteSpace=wrap;html=1;rounded=1;labelBackgroundColor=none;fillColor=#EEEEEE;strokeColor=#FFFFFF;fontColor=#1A1A1A;" parent="1" vertex="1">
          <mxGeometry x="970" y="680" width="80" height="20" as="geometry" />
        </mxCell>
        <mxCell id="ywmePfMpzFRgb4OI0cGg-103" value="Велосипед" style="rounded=1;whiteSpace=wrap;html=1;labelBackgroundColor=none;fillColor=#EEEEEE;strokeColor=#FFFFFF;fontColor=#1A1A1A;" parent="1" vertex="1">
          <mxGeometry x="970" y="720" width="80" height="20" as="geometry" />
        </mxCell>
        <mxCell id="ywmePfMpzFRgb4OI0cGg-105" value="Самокат" style="rounded=1;whiteSpace=wrap;html=1;labelBackgroundColor=none;fillColor=#EEEEEE;strokeColor=#FFFFFF;fontColor=#1A1A1A;" parent="1" vertex="1">
          <mxGeometry x="970" y="750" width="80" height="20" as="geometry" />
        </mxCell>
        <mxCell id="ywmePfMpzFRgb4OI0cGg-107" value="Каршеринг" style="rounded=1;whiteSpace=wrap;html=1;labelBackgroundColor=none;fillColor=#EEEEEE;strokeColor=#FFFFFF;fontColor=#1A1A1A;" parent="1" vertex="1">
          <mxGeometry x="970" y="780" width="80" height="20" as="geometry" />
        </mxCell>
        <mxCell id="ywmePfMpzFRgb4OI0cGg-142" value="" style="edgeStyle=orthogonalEdgeStyle;rounded=0;orthogonalLoop=1;jettySize=auto;html=1;labelBackgroundColor=none;strokeColor=#FFFFFF;fontColor=default;" parent="1" source="ywmePfMpzFRgb4OI0cGg-112" target="ywmePfMpzFRgb4OI0cGg-141" edge="1">
          <mxGeometry relative="1" as="geometry">
            <Array as="points">
              <mxPoint x="860" y="1090" />
              <mxPoint x="860" y="920" />
            </Array>
          </mxGeometry>
        </mxCell>
        <mxCell id="ywmePfMpzFRgb4OI0cGg-148" value="" style="edgeStyle=orthogonalEdgeStyle;rounded=0;orthogonalLoop=1;jettySize=auto;html=1;labelBackgroundColor=none;strokeColor=#FFFFFF;fontColor=default;" parent="1" source="ywmePfMpzFRgb4OI0cGg-112" target="ywmePfMpzFRgb4OI0cGg-147" edge="1">
          <mxGeometry relative="1" as="geometry">
            <Array as="points">
              <mxPoint x="860" y="1090" />
              <mxPoint x="860" y="1030" />
            </Array>
          </mxGeometry>
        </mxCell>
        <mxCell id="ywmePfMpzFRgb4OI0cGg-150" value="" style="edgeStyle=orthogonalEdgeStyle;rounded=0;orthogonalLoop=1;jettySize=auto;html=1;labelBackgroundColor=none;strokeColor=#FFFFFF;fontColor=default;" parent="1" source="ywmePfMpzFRgb4OI0cGg-112" target="ywmePfMpzFRgb4OI0cGg-149" edge="1">
          <mxGeometry relative="1" as="geometry">
            <Array as="points">
              <mxPoint x="860" y="1090" />
              <mxPoint x="860" y="1300" />
            </Array>
          </mxGeometry>
        </mxCell>
        <mxCell id="ywmePfMpzFRgb4OI0cGg-167" value="" style="edgeStyle=orthogonalEdgeStyle;rounded=0;orthogonalLoop=1;jettySize=auto;html=1;labelBackgroundColor=none;strokeColor=#FFFFFF;fontColor=default;" parent="1" source="ywmePfMpzFRgb4OI0cGg-112" target="ywmePfMpzFRgb4OI0cGg-166" edge="1">
          <mxGeometry relative="1" as="geometry">
            <Array as="points">
              <mxPoint x="860" y="1090" />
              <mxPoint x="860" y="1170" />
            </Array>
          </mxGeometry>
        </mxCell>
        <mxCell id="ywmePfMpzFRgb4OI0cGg-112" value="Схема" style="rounded=1;whiteSpace=wrap;html=1;labelBackgroundColor=none;fillColor=#EEEEEE;strokeColor=#FFFFFF;fontColor=#1A1A1A;" parent="1" vertex="1">
          <mxGeometry x="720" y="1060" width="120" height="60" as="geometry" />
        </mxCell>
        <mxCell id="ywmePfMpzFRgb4OI0cGg-127" value="" style="edgeStyle=orthogonalEdgeStyle;rounded=0;orthogonalLoop=1;jettySize=auto;html=1;labelBackgroundColor=none;strokeColor=#FFFFFF;fontColor=default;" parent="1" source="ywmePfMpzFRgb4OI0cGg-114" target="ywmePfMpzFRgb4OI0cGg-126" edge="1">
          <mxGeometry relative="1" as="geometry">
            <Array as="points">
              <mxPoint x="140" y="495" />
            </Array>
          </mxGeometry>
        </mxCell>
        <mxCell id="ywmePfMpzFRgb4OI0cGg-131" value="" style="edgeStyle=orthogonalEdgeStyle;rounded=0;orthogonalLoop=1;jettySize=auto;html=1;labelBackgroundColor=none;strokeColor=#FFFFFF;fontColor=default;" parent="1" source="ywmePfMpzFRgb4OI0cGg-114" target="ywmePfMpzFRgb4OI0cGg-130" edge="1">
          <mxGeometry relative="1" as="geometry" />
        </mxCell>
        <mxCell id="ywmePfMpzFRgb4OI0cGg-132" value="" style="edgeStyle=orthogonalEdgeStyle;rounded=0;orthogonalLoop=1;jettySize=auto;html=1;labelBackgroundColor=none;strokeColor=#FFFFFF;fontColor=default;" parent="1" source="ywmePfMpzFRgb4OI0cGg-114" target="ywmePfMpzFRgb4OI0cGg-130" edge="1">
          <mxGeometry relative="1" as="geometry" />
        </mxCell>
        <mxCell id="ywmePfMpzFRgb4OI0cGg-134" value="" style="edgeStyle=orthogonalEdgeStyle;rounded=0;orthogonalLoop=1;jettySize=auto;html=1;labelBackgroundColor=none;strokeColor=#FFFFFF;fontColor=default;" parent="1" source="ywmePfMpzFRgb4OI0cGg-114" target="ywmePfMpzFRgb4OI0cGg-133" edge="1">
          <mxGeometry relative="1" as="geometry">
            <Array as="points">
              <mxPoint x="140" y="495" />
              <mxPoint x="140" y="630" />
            </Array>
          </mxGeometry>
        </mxCell>
        <mxCell id="ywmePfMpzFRgb4OI0cGg-114" value="Логика" style="whiteSpace=wrap;html=1;labelBackgroundColor=none;fillColor=#EEEEEE;strokeColor=#FFFFFF;fontColor=#1A1A1A;" parent="1" vertex="1">
          <mxGeometry x="158.5" y="465" width="120" height="60" as="geometry" />
        </mxCell>
        <mxCell id="ywmePfMpzFRgb4OI0cGg-121" value="" style="edgeStyle=orthogonalEdgeStyle;rounded=0;orthogonalLoop=1;jettySize=auto;html=1;labelBackgroundColor=none;strokeColor=#FFFFFF;fontColor=default;" parent="1" source="ywmePfMpzFRgb4OI0cGg-118" target="ywmePfMpzFRgb4OI0cGg-120" edge="1">
          <mxGeometry relative="1" as="geometry">
            <Array as="points">
              <mxPoint x="850" y="110" />
              <mxPoint x="850" y="60" />
            </Array>
          </mxGeometry>
        </mxCell>
        <mxCell id="ywmePfMpzFRgb4OI0cGg-123" value="" style="edgeStyle=orthogonalEdgeStyle;rounded=0;orthogonalLoop=1;jettySize=auto;html=1;labelBackgroundColor=none;strokeColor=#FFFFFF;fontColor=default;" parent="1" source="ywmePfMpzFRgb4OI0cGg-118" target="ywmePfMpzFRgb4OI0cGg-122" edge="1">
          <mxGeometry relative="1" as="geometry" />
        </mxCell>
        <mxCell id="ywmePfMpzFRgb4OI0cGg-125" value="" style="edgeStyle=orthogonalEdgeStyle;rounded=0;orthogonalLoop=1;jettySize=auto;html=1;labelBackgroundColor=none;strokeColor=#FFFFFF;fontColor=default;" parent="1" source="ywmePfMpzFRgb4OI0cGg-118" target="ywmePfMpzFRgb4OI0cGg-124" edge="1">
          <mxGeometry relative="1" as="geometry">
            <Array as="points">
              <mxPoint x="850" y="110" />
              <mxPoint x="850" y="160" />
            </Array>
          </mxGeometry>
        </mxCell>
        <mxCell id="ywmePfMpzFRgb4OI0cGg-118" value="Шапка" style="rounded=1;whiteSpace=wrap;html=1;labelBackgroundColor=none;fillColor=#EEEEEE;strokeColor=#FFFFFF;fontColor=#1A1A1A;" parent="1" vertex="1">
          <mxGeometry x="720" y="80" width="120" height="60" as="geometry" />
        </mxCell>
        <mxCell id="ywmePfMpzFRgb4OI0cGg-120" value="Лого Яндекс" style="whiteSpace=wrap;html=1;rounded=1;labelBackgroundColor=none;fillColor=#EEEEEE;strokeColor=#FFFFFF;fontColor=#1A1A1A;" parent="1" vertex="1">
          <mxGeometry x="860" y="40" width="90" height="40" as="geometry" />
        </mxCell>
        <mxCell id="ywmePfMpzFRgb4OI0cGg-122" value="Лого Маршруты" style="rounded=1;whiteSpace=wrap;html=1;labelBackgroundColor=none;fillColor=#EEEEEE;strokeColor=#FFFFFF;fontColor=#1A1A1A;" parent="1" vertex="1">
          <mxGeometry x="860" y="90" width="90" height="40" as="geometry" />
        </mxCell>
        <mxCell id="ywmePfMpzFRgb4OI0cGg-124" value="Лого учебный тренажер" style="rounded=1;whiteSpace=wrap;html=1;labelBackgroundColor=none;fillColor=#EEEEEE;strokeColor=#FFFFFF;fontColor=#1A1A1A;" parent="1" vertex="1">
          <mxGeometry x="860" y="140" width="90" height="40" as="geometry" />
        </mxCell>
        <mxCell id="ywmePfMpzFRgb4OI0cGg-136" value="" style="edgeStyle=orthogonalEdgeStyle;rounded=0;orthogonalLoop=1;jettySize=auto;html=1;labelBackgroundColor=none;strokeColor=#FFFFFF;fontColor=default;" parent="1" source="ywmePfMpzFRgb4OI0cGg-126" target="ywmePfMpzFRgb4OI0cGg-135" edge="1">
          <mxGeometry relative="1" as="geometry">
            <Array as="points">
              <mxPoint x="-10" y="110" />
              <mxPoint x="-10" y="-40" />
            </Array>
          </mxGeometry>
        </mxCell>
        <mxCell id="ywmePfMpzFRgb4OI0cGg-138" value="" style="edgeStyle=orthogonalEdgeStyle;rounded=0;orthogonalLoop=1;jettySize=auto;html=1;labelBackgroundColor=none;strokeColor=#FFFFFF;fontColor=default;" parent="1" source="ywmePfMpzFRgb4OI0cGg-126" target="ywmePfMpzFRgb4OI0cGg-137" edge="1">
          <mxGeometry relative="1" as="geometry">
            <Array as="points">
              <mxPoint x="-20" y="110" />
              <mxPoint x="-20" y="110" />
            </Array>
          </mxGeometry>
        </mxCell>
        <mxCell id="ywmePfMpzFRgb4OI0cGg-140" value="" style="edgeStyle=orthogonalEdgeStyle;rounded=0;orthogonalLoop=1;jettySize=auto;html=1;labelBackgroundColor=none;strokeColor=#FFFFFF;fontColor=default;" parent="1" source="ywmePfMpzFRgb4OI0cGg-126" target="ywmePfMpzFRgb4OI0cGg-139" edge="1">
          <mxGeometry relative="1" as="geometry">
            <Array as="points">
              <mxPoint x="-10" y="110" />
              <mxPoint x="-10" y="270" />
            </Array>
          </mxGeometry>
        </mxCell>
        <mxCell id="ywmePfMpzFRgb4OI0cGg-126" value="Построение маршрута" style="rounded=1;whiteSpace=wrap;html=1;labelBackgroundColor=none;fillColor=#EEEEEE;strokeColor=#FFFFFF;fontColor=#1A1A1A;" parent="1" vertex="1">
          <mxGeometry y="80" width="120" height="60" as="geometry" />
        </mxCell>
        <mxCell id="ywmePfMpzFRgb4OI0cGg-253" value="" style="edgeStyle=orthogonalEdgeStyle;rounded=0;orthogonalLoop=1;jettySize=auto;html=1;labelBackgroundColor=none;strokeColor=#FFFFFF;fontColor=default;" parent="1" source="ywmePfMpzFRgb4OI0cGg-130" target="ywmePfMpzFRgb4OI0cGg-252" edge="1">
          <mxGeometry relative="1" as="geometry" />
        </mxCell>
        <mxCell id="ywmePfMpzFRgb4OI0cGg-255" style="edgeStyle=orthogonalEdgeStyle;rounded=0;orthogonalLoop=1;jettySize=auto;html=1;entryX=1;entryY=0.5;entryDx=0;entryDy=0;labelBackgroundColor=none;strokeColor=#FFFFFF;fontColor=default;" parent="1" source="ywmePfMpzFRgb4OI0cGg-130" target="ywmePfMpzFRgb4OI0cGg-254" edge="1">
          <mxGeometry relative="1" as="geometry" />
        </mxCell>
        <mxCell id="ywmePfMpzFRgb4OI0cGg-130" value="Работа с картой" style="rounded=1;whiteSpace=wrap;html=1;labelBackgroundColor=none;fillColor=#EEEEEE;strokeColor=#FFFFFF;fontColor=#1A1A1A;" parent="1" vertex="1">
          <mxGeometry y="465" width="120" height="60" as="geometry" />
        </mxCell>
        <mxCell id="ywmePfMpzFRgb4OI0cGg-133" value="Расчет стоимости" style="rounded=1;whiteSpace=wrap;html=1;labelBackgroundColor=none;fillColor=#EEEEEE;strokeColor=#FFFFFF;fontColor=#1A1A1A;" parent="1" vertex="1">
          <mxGeometry y="605" width="120" height="60" as="geometry" />
        </mxCell>
        <mxCell id="ywmePfMpzFRgb4OI0cGg-211" value="" style="edgeStyle=orthogonalEdgeStyle;rounded=0;orthogonalLoop=1;jettySize=auto;html=1;labelBackgroundColor=none;strokeColor=#FFFFFF;fontColor=default;" parent="1" source="ywmePfMpzFRgb4OI0cGg-135" target="ywmePfMpzFRgb4OI0cGg-210" edge="1">
          <mxGeometry relative="1" as="geometry" />
        </mxCell>
        <mxCell id="ywmePfMpzFRgb4OI0cGg-243" value="" style="edgeStyle=orthogonalEdgeStyle;rounded=0;orthogonalLoop=1;jettySize=auto;html=1;labelBackgroundColor=none;strokeColor=#FFFFFF;fontColor=default;" parent="1" source="ywmePfMpzFRgb4OI0cGg-135" target="ywmePfMpzFRgb4OI0cGg-241" edge="1">
          <mxGeometry relative="1" as="geometry" />
        </mxCell>
        <mxCell id="ywmePfMpzFRgb4OI0cGg-135" value="Время начала поездки" style="whiteSpace=wrap;html=1;rounded=1;labelBackgroundColor=none;fillColor=#EEEEEE;strokeColor=#FFFFFF;fontColor=#1A1A1A;" parent="1" vertex="1">
          <mxGeometry x="-160" y="-70" width="120" height="60" as="geometry" />
        </mxCell>
        <mxCell id="ywmePfMpzFRgb4OI0cGg-204" value="" style="edgeStyle=orthogonalEdgeStyle;rounded=0;orthogonalLoop=1;jettySize=auto;html=1;labelBackgroundColor=none;strokeColor=#FFFFFF;fontColor=default;" parent="1" source="ywmePfMpzFRgb4OI0cGg-137" target="ywmePfMpzFRgb4OI0cGg-203" edge="1">
          <mxGeometry relative="1" as="geometry" />
        </mxCell>
        <mxCell id="ywmePfMpzFRgb4OI0cGg-223" value="" style="edgeStyle=orthogonalEdgeStyle;rounded=0;orthogonalLoop=1;jettySize=auto;html=1;labelBackgroundColor=none;strokeColor=#FFFFFF;fontColor=default;" parent="1" source="ywmePfMpzFRgb4OI0cGg-137" target="ywmePfMpzFRgb4OI0cGg-222" edge="1">
          <mxGeometry relative="1" as="geometry" />
        </mxCell>
        <mxCell id="ywmePfMpzFRgb4OI0cGg-137" value="Поиск маршрута" style="whiteSpace=wrap;html=1;rounded=1;labelBackgroundColor=none;fillColor=#EEEEEE;strokeColor=#FFFFFF;fontColor=#1A1A1A;" parent="1" vertex="1">
          <mxGeometry x="-160" y="80" width="120" height="60" as="geometry" />
        </mxCell>
        <mxCell id="ywmePfMpzFRgb4OI0cGg-247" value="" style="edgeStyle=orthogonalEdgeStyle;rounded=0;orthogonalLoop=1;jettySize=auto;html=1;labelBackgroundColor=none;strokeColor=#FFFFFF;fontColor=default;" parent="1" source="ywmePfMpzFRgb4OI0cGg-139" target="ywmePfMpzFRgb4OI0cGg-246" edge="1">
          <mxGeometry relative="1" as="geometry">
            <Array as="points">
              <mxPoint x="-315" y="270" />
              <mxPoint x="-315" y="190" />
            </Array>
          </mxGeometry>
        </mxCell>
        <mxCell id="ywmePfMpzFRgb4OI0cGg-249" style="edgeStyle=orthogonalEdgeStyle;rounded=0;orthogonalLoop=1;jettySize=auto;html=1;entryX=1;entryY=0.5;entryDx=0;entryDy=0;labelBackgroundColor=none;strokeColor=#FFFFFF;fontColor=default;" parent="1" source="ywmePfMpzFRgb4OI0cGg-139" target="ywmePfMpzFRgb4OI0cGg-248" edge="1">
          <mxGeometry relative="1" as="geometry" />
        </mxCell>
        <mxCell id="ywmePfMpzFRgb4OI0cGg-139" value="Выбор транспорта" style="whiteSpace=wrap;html=1;rounded=1;labelBackgroundColor=none;fillColor=#EEEEEE;strokeColor=#FFFFFF;fontColor=#1A1A1A;" parent="1" vertex="1">
          <mxGeometry x="-160" y="240" width="120" height="60" as="geometry" />
        </mxCell>
        <mxCell id="ywmePfMpzFRgb4OI0cGg-152" value="" style="edgeStyle=orthogonalEdgeStyle;rounded=0;orthogonalLoop=1;jettySize=auto;html=1;labelBackgroundColor=none;strokeColor=#FFFFFF;fontColor=default;" parent="1" source="ywmePfMpzFRgb4OI0cGg-141" target="ywmePfMpzFRgb4OI0cGg-151" edge="1">
          <mxGeometry relative="1" as="geometry">
            <Array as="points">
              <mxPoint x="1000" y="920" />
              <mxPoint x="1000" y="890" />
            </Array>
          </mxGeometry>
        </mxCell>
        <mxCell id="ywmePfMpzFRgb4OI0cGg-154" value="" style="edgeStyle=orthogonalEdgeStyle;rounded=0;orthogonalLoop=1;jettySize=auto;html=1;labelBackgroundColor=none;strokeColor=#FFFFFF;fontColor=default;" parent="1" source="ywmePfMpzFRgb4OI0cGg-141" target="ywmePfMpzFRgb4OI0cGg-153" edge="1">
          <mxGeometry relative="1" as="geometry" />
        </mxCell>
        <mxCell id="ywmePfMpzFRgb4OI0cGg-156" value="" style="edgeStyle=orthogonalEdgeStyle;rounded=0;orthogonalLoop=1;jettySize=auto;html=1;labelBackgroundColor=none;strokeColor=#FFFFFF;fontColor=default;" parent="1" source="ywmePfMpzFRgb4OI0cGg-141" target="ywmePfMpzFRgb4OI0cGg-155" edge="1">
          <mxGeometry relative="1" as="geometry">
            <Array as="points">
              <mxPoint x="1000" y="920" />
              <mxPoint x="1000" y="950" />
            </Array>
          </mxGeometry>
        </mxCell>
        <mxCell id="ywmePfMpzFRgb4OI0cGg-141" value="Масштаб" style="whiteSpace=wrap;html=1;rounded=1;labelBackgroundColor=none;fillColor=#EEEEEE;strokeColor=#FFFFFF;fontColor=#1A1A1A;" parent="1" vertex="1">
          <mxGeometry x="900" y="900" width="90" height="40" as="geometry" />
        </mxCell>
        <mxCell id="ywmePfMpzFRgb4OI0cGg-147" value="Карта" style="whiteSpace=wrap;html=1;rounded=1;labelBackgroundColor=none;fillColor=#EEEEEE;strokeColor=#FFFFFF;fontColor=#1A1A1A;" parent="1" vertex="1">
          <mxGeometry x="900" y="1010" width="90" height="40" as="geometry" />
        </mxCell>
        <mxCell id="ywmePfMpzFRgb4OI0cGg-158" value="" style="edgeStyle=orthogonalEdgeStyle;rounded=0;orthogonalLoop=1;jettySize=auto;html=1;labelBackgroundColor=none;strokeColor=#FFFFFF;fontColor=default;" parent="1" source="ywmePfMpzFRgb4OI0cGg-149" target="ywmePfMpzFRgb4OI0cGg-157" edge="1">
          <mxGeometry relative="1" as="geometry">
            <Array as="points">
              <mxPoint x="1000" y="1300" />
            </Array>
          </mxGeometry>
        </mxCell>
        <mxCell id="ywmePfMpzFRgb4OI0cGg-160" value="" style="edgeStyle=orthogonalEdgeStyle;rounded=0;orthogonalLoop=1;jettySize=auto;html=1;labelBackgroundColor=none;strokeColor=#FFFFFF;fontColor=default;" parent="1" source="ywmePfMpzFRgb4OI0cGg-149" target="ywmePfMpzFRgb4OI0cGg-159" edge="1">
          <mxGeometry relative="1" as="geometry">
            <Array as="points">
              <mxPoint x="1000" y="1300" />
              <mxPoint x="1000" y="1280" />
            </Array>
          </mxGeometry>
        </mxCell>
        <mxCell id="ywmePfMpzFRgb4OI0cGg-163" value="" style="edgeStyle=orthogonalEdgeStyle;rounded=0;orthogonalLoop=1;jettySize=auto;html=1;labelBackgroundColor=none;strokeColor=#FFFFFF;fontColor=default;" parent="1" source="ywmePfMpzFRgb4OI0cGg-149" target="ywmePfMpzFRgb4OI0cGg-162" edge="1">
          <mxGeometry relative="1" as="geometry">
            <Array as="points">
              <mxPoint x="1000" y="1300" />
              <mxPoint x="1000" y="1320" />
            </Array>
          </mxGeometry>
        </mxCell>
        <mxCell id="ywmePfMpzFRgb4OI0cGg-165" value="" style="edgeStyle=orthogonalEdgeStyle;rounded=0;orthogonalLoop=1;jettySize=auto;html=1;labelBackgroundColor=none;strokeColor=#FFFFFF;fontColor=default;" parent="1" source="ywmePfMpzFRgb4OI0cGg-149" target="ywmePfMpzFRgb4OI0cGg-164" edge="1">
          <mxGeometry relative="1" as="geometry">
            <Array as="points">
              <mxPoint x="1000" y="1300" />
              <mxPoint x="1000" y="1360" />
            </Array>
          </mxGeometry>
        </mxCell>
        <mxCell id="ywmePfMpzFRgb4OI0cGg-149" value="Подвал" style="rounded=1;whiteSpace=wrap;html=1;labelBackgroundColor=none;fillColor=#EEEEEE;strokeColor=#FFFFFF;fontColor=#1A1A1A;" parent="1" vertex="1">
          <mxGeometry x="900" y="1280" width="90" height="40" as="geometry" />
        </mxCell>
        <mxCell id="ywmePfMpzFRgb4OI0cGg-151" value="Кнопка &quot;Увеличение масштаба&quot;&amp;nbsp;" style="whiteSpace=wrap;html=1;rounded=1;labelBackgroundColor=none;fillColor=#EEEEEE;strokeColor=#FFFFFF;fontColor=#1A1A1A;" parent="1" vertex="1">
          <mxGeometry x="1010" y="880" width="200" height="20" as="geometry" />
        </mxCell>
        <mxCell id="ywmePfMpzFRgb4OI0cGg-153" value="Кнопка &quot;Уменьшение масштаба&quot;&amp;nbsp;" style="whiteSpace=wrap;html=1;rounded=1;labelBackgroundColor=none;fillColor=#EEEEEE;strokeColor=#FFFFFF;fontColor=#1A1A1A;" parent="1" vertex="1">
          <mxGeometry x="1010" y="910" width="200" height="20" as="geometry" />
        </mxCell>
        <mxCell id="ywmePfMpzFRgb4OI0cGg-155" value="Ползунок изменения масштаба" style="rounded=1;whiteSpace=wrap;html=1;labelBackgroundColor=none;fillColor=#EEEEEE;strokeColor=#FFFFFF;fontColor=#1A1A1A;" parent="1" vertex="1">
          <mxGeometry x="1010" y="940" width="200" height="20" as="geometry" />
        </mxCell>
        <mxCell id="ywmePfMpzFRgb4OI0cGg-157" value="Кнопка &quot;Открыть маршрут&quot;" style="whiteSpace=wrap;html=1;rounded=1;labelBackgroundColor=none;fillColor=#EEEEEE;strokeColor=#FFFFFF;fontColor=#1A1A1A;" parent="1" vertex="1">
          <mxGeometry x="1010" y="1230" width="200" height="20" as="geometry" />
        </mxCell>
        <mxCell id="ywmePfMpzFRgb4OI0cGg-159" value="Ссылка &quot;Создать свою карту&quot;" style="rounded=1;whiteSpace=wrap;html=1;labelBackgroundColor=none;fillColor=#EEEEEE;strokeColor=#FFFFFF;fontColor=#1A1A1A;" parent="1" vertex="1">
          <mxGeometry x="1010" y="1270" width="200" height="20" as="geometry" />
        </mxCell>
        <mxCell id="ywmePfMpzFRgb4OI0cGg-162" value="Копирайт&amp;nbsp;" style="whiteSpace=wrap;html=1;rounded=1;labelBackgroundColor=none;fillColor=#EEEEEE;strokeColor=#FFFFFF;fontColor=#1A1A1A;" parent="1" vertex="1">
          <mxGeometry x="1010" y="1310" width="200" height="20" as="geometry" />
        </mxCell>
        <mxCell id="ywmePfMpzFRgb4OI0cGg-164" value="Ссылка &quot;Условия использования&quot;" style="rounded=1;whiteSpace=wrap;html=1;labelBackgroundColor=none;fillColor=#EEEEEE;strokeColor=#FFFFFF;fontColor=#1A1A1A;" parent="1" vertex="1">
          <mxGeometry x="1010" y="1350" width="200" height="20" as="geometry" />
        </mxCell>
        <mxCell id="ywmePfMpzFRgb4OI0cGg-169" value="" style="edgeStyle=orthogonalEdgeStyle;rounded=0;orthogonalLoop=1;jettySize=auto;html=1;labelBackgroundColor=none;strokeColor=#FFFFFF;fontColor=default;" parent="1" source="ywmePfMpzFRgb4OI0cGg-166" target="ywmePfMpzFRgb4OI0cGg-168" edge="1">
          <mxGeometry relative="1" as="geometry">
            <Array as="points">
              <mxPoint x="1000" y="1170" />
              <mxPoint x="1000" y="1140" />
            </Array>
          </mxGeometry>
        </mxCell>
        <mxCell id="ywmePfMpzFRgb4OI0cGg-175" value="" style="edgeStyle=orthogonalEdgeStyle;rounded=0;orthogonalLoop=1;jettySize=auto;html=1;entryX=0;entryY=0.5;entryDx=0;entryDy=0;labelBackgroundColor=none;strokeColor=#FFFFFF;fontColor=default;" parent="1" source="ywmePfMpzFRgb4OI0cGg-166" target="ywmePfMpzFRgb4OI0cGg-176" edge="1">
          <mxGeometry relative="1" as="geometry">
            <Array as="points">
              <mxPoint x="1000" y="1170" />
              <mxPoint x="1000" y="1200" />
            </Array>
          </mxGeometry>
        </mxCell>
        <mxCell id="ywmePfMpzFRgb4OI0cGg-186" value="" style="edgeStyle=orthogonalEdgeStyle;rounded=0;orthogonalLoop=1;jettySize=auto;html=1;entryX=0;entryY=0.5;entryDx=0;entryDy=0;labelBackgroundColor=none;strokeColor=#FFFFFF;fontColor=default;" parent="1" source="ywmePfMpzFRgb4OI0cGg-166" target="ywmePfMpzFRgb4OI0cGg-174" edge="1">
          <mxGeometry relative="1" as="geometry">
            <Array as="points" />
          </mxGeometry>
        </mxCell>
        <mxCell id="ywmePfMpzFRgb4OI0cGg-166" value="Маршрут" style="rounded=1;whiteSpace=wrap;html=1;labelBackgroundColor=none;fillColor=#EEEEEE;strokeColor=#FFFFFF;fontColor=#1A1A1A;" parent="1" vertex="1">
          <mxGeometry x="900" y="1150" width="90" height="40" as="geometry" />
        </mxCell>
        <mxCell id="ywmePfMpzFRgb4OI0cGg-168" value="Точка &quot;A&quot; с названием адреса" style="whiteSpace=wrap;html=1;rounded=1;labelBackgroundColor=none;fillColor=#EEEEEE;strokeColor=#FFFFFF;fontColor=#1A1A1A;" parent="1" vertex="1">
          <mxGeometry x="1020" y="1130" width="200" height="20" as="geometry" />
        </mxCell>
        <mxCell id="ywmePfMpzFRgb4OI0cGg-174" value="Указанный маршрут" style="rounded=1;whiteSpace=wrap;html=1;labelBackgroundColor=none;fillColor=#EEEEEE;strokeColor=#FFFFFF;fontColor=#1A1A1A;" parent="1" vertex="1">
          <mxGeometry x="1020" y="1160" width="200" height="20" as="geometry" />
        </mxCell>
        <mxCell id="ywmePfMpzFRgb4OI0cGg-176" value="Точка &quot;A&quot; с названием адреса" style="rounded=1;whiteSpace=wrap;html=1;labelBackgroundColor=none;fillColor=#EEEEEE;strokeColor=#FFFFFF;fontColor=#1A1A1A;" parent="1" vertex="1">
          <mxGeometry x="1020" y="1190" width="200" height="20" as="geometry" />
        </mxCell>
        <mxCell id="ywmePfMpzFRgb4OI0cGg-219" value="" style="edgeStyle=orthogonalEdgeStyle;rounded=0;orthogonalLoop=1;jettySize=auto;html=1;labelBackgroundColor=none;strokeColor=#FFFFFF;fontColor=default;" parent="1" source="ywmePfMpzFRgb4OI0cGg-203" target="ywmePfMpzFRgb4OI0cGg-218" edge="1">
          <mxGeometry relative="1" as="geometry" />
        </mxCell>
        <mxCell id="ywmePfMpzFRgb4OI0cGg-203" value="Поля ввода" style="whiteSpace=wrap;html=1;rounded=1;labelBackgroundColor=none;fillColor=#EEEEEE;strokeColor=#FFFFFF;fontColor=#1A1A1A;" parent="1" vertex="1">
          <mxGeometry x="-285" y="60" width="90" height="40" as="geometry" />
        </mxCell>
        <mxCell id="ywmePfMpzFRgb4OI0cGg-213" value="" style="edgeStyle=orthogonalEdgeStyle;rounded=0;orthogonalLoop=1;jettySize=auto;html=1;labelBackgroundColor=none;strokeColor=#FFFFFF;fontColor=default;" parent="1" source="ywmePfMpzFRgb4OI0cGg-210" target="ywmePfMpzFRgb4OI0cGg-212" edge="1">
          <mxGeometry relative="1" as="geometry" />
        </mxCell>
        <mxCell id="ywmePfMpzFRgb4OI0cGg-210" value="Поля ввода" style="whiteSpace=wrap;html=1;rounded=1;labelBackgroundColor=none;fillColor=#EEEEEE;strokeColor=#FFFFFF;fontColor=#1A1A1A;" parent="1" vertex="1">
          <mxGeometry x="-285" y="-90" width="90" height="40" as="geometry" />
        </mxCell>
        <mxCell id="ywmePfMpzFRgb4OI0cGg-218" value="Если поля адреса заполнены корректно, на карте отображаются точки А и В. Если поле «Откуда» заполнено некорректно, точка А не отображается. Если поле «Куда» заполнено некорректно, точка В не отображается. При некорректном значении поле подсвечивается красным; появляется сообщение об ошибке." style="whiteSpace=wrap;html=1;rounded=1;labelBackgroundColor=none;fillColor=#EEEEEE;strokeColor=#FFFFFF;fontColor=#1A1A1A;" parent="1" vertex="1">
          <mxGeometry x="-750" y="-30" width="290" height="150" as="geometry" />
        </mxCell>
        <mxCell id="ywmePfMpzFRgb4OI0cGg-225" value="" style="edgeStyle=orthogonalEdgeStyle;rounded=0;orthogonalLoop=1;jettySize=auto;html=1;labelBackgroundColor=none;strokeColor=#FFFFFF;fontColor=default;" parent="1" source="ywmePfMpzFRgb4OI0cGg-222" target="ywmePfMpzFRgb4OI0cGg-224" edge="1">
          <mxGeometry relative="1" as="geometry" />
        </mxCell>
        <mxCell id="ywmePfMpzFRgb4OI0cGg-222" value="Очистка" style="rounded=1;whiteSpace=wrap;html=1;labelBackgroundColor=none;fillColor=#EEEEEE;strokeColor=#FFFFFF;fontColor=#1A1A1A;" parent="1" vertex="1">
          <mxGeometry x="-285" y="120" width="90" height="40" as="geometry" />
        </mxCell>
        <mxCell id="ywmePfMpzFRgb4OI0cGg-224" value="Клваиатурой" style="whiteSpace=wrap;html=1;rounded=1;labelBackgroundColor=none;fillColor=#EEEEEE;strokeColor=#FFFFFF;fontColor=#1A1A1A;" parent="1" vertex="1">
          <mxGeometry x="-400" y="120" width="90" height="40" as="geometry" />
        </mxCell>
        <mxCell id="ywmePfMpzFRgb4OI0cGg-228" value="Плейсхолдер &quot;Усачева, 3&quot;" style="whiteSpace=wrap;html=1;rounded=1;labelBackgroundColor=none;fillColor=#EEEEEE;strokeColor=#FFFFFF;fontColor=#1A1A1A;" parent="1" vertex="1">
          <mxGeometry x="970" y="370" width="260" height="40" as="geometry" />
        </mxCell>
        <mxCell id="ywmePfMpzFRgb4OI0cGg-230" value="Плейсхолдер &quot;Фрунзенская набережная, 46&quot;" style="whiteSpace=wrap;html=1;rounded=1;labelBackgroundColor=none;fillColor=#EEEEEE;strokeColor=#FFFFFF;fontColor=#1A1A1A;" parent="1" vertex="1">
          <mxGeometry x="970" y="430" width="260" height="40" as="geometry" />
        </mxCell>
        <mxCell id="ywmePfMpzFRgb4OI0cGg-233" value="Плейсхолдер &quot;00&quot;" style="rounded=1;whiteSpace=wrap;html=1;labelBackgroundColor=none;fillColor=#EEEEEE;strokeColor=#FFFFFF;fontColor=#1A1A1A;" parent="1" vertex="1">
          <mxGeometry x="970" y="190" width="110" height="40" as="geometry" />
        </mxCell>
        <mxCell id="ywmePfMpzFRgb4OI0cGg-235" value="Плейсхолдер &quot;00&quot;" style="rounded=1;whiteSpace=wrap;html=1;labelBackgroundColor=none;fillColor=#EEEEEE;strokeColor=#FFFFFF;fontColor=#1A1A1A;" parent="1" vertex="1">
          <mxGeometry x="970" y="250" width="110" height="40" as="geometry" />
        </mxCell>
        <mxCell id="ywmePfMpzFRgb4OI0cGg-238" value="" style="edgeStyle=orthogonalEdgeStyle;rounded=0;orthogonalLoop=1;jettySize=auto;html=1;labelBackgroundColor=none;strokeColor=#FFFFFF;fontColor=default;" parent="1" source="ywmePfMpzFRgb4OI0cGg-210" target="ywmePfMpzFRgb4OI0cGg-212" edge="1">
          <mxGeometry relative="1" as="geometry">
            <mxPoint x="-285" y="-50" as="sourcePoint" />
            <mxPoint x="-384.9411764705883" as="targetPoint" />
          </mxGeometry>
        </mxCell>
        <mxCell id="ywmePfMpzFRgb4OI0cGg-212" value="Ввод времени" style="whiteSpace=wrap;html=1;rounded=1;labelBackgroundColor=none;fillColor=#EEEEEE;strokeColor=#FFFFFF;fontColor=#1A1A1A;" parent="1" vertex="1">
          <mxGeometry x="-400" y="-90" width="90" height="40" as="geometry" />
        </mxCell>
        <mxCell id="ywmePfMpzFRgb4OI0cGg-245" value="" style="edgeStyle=orthogonalEdgeStyle;rounded=0;orthogonalLoop=1;jettySize=auto;html=1;labelBackgroundColor=none;strokeColor=#FFFFFF;fontColor=default;" parent="1" source="ywmePfMpzFRgb4OI0cGg-241" target="ywmePfMpzFRgb4OI0cGg-244" edge="1">
          <mxGeometry relative="1" as="geometry" />
        </mxCell>
        <mxCell id="ywmePfMpzFRgb4OI0cGg-241" value="Очистка" style="rounded=1;whiteSpace=wrap;html=1;labelBackgroundColor=none;fillColor=#EEEEEE;strokeColor=#FFFFFF;fontColor=#1A1A1A;" parent="1" vertex="1">
          <mxGeometry x="-285" y="-30" width="90" height="40" as="geometry" />
        </mxCell>
        <mxCell id="ywmePfMpzFRgb4OI0cGg-244" value="Клавиатурой" style="rounded=1;whiteSpace=wrap;html=1;labelBackgroundColor=none;fillColor=#EEEEEE;strokeColor=#FFFFFF;fontColor=#1A1A1A;" parent="1" vertex="1">
          <mxGeometry x="-400" y="-30" width="90" height="40" as="geometry" />
        </mxCell>
        <mxCell id="ywmePfMpzFRgb4OI0cGg-246" value="Если выбрать режим «Оптимальный» или «Быстрый», система автоматически назначит вид транспорта; построится маршрут; отобразится время и стоимость поездки. Выбрать транспорт в этих режимах нельзя — панель видов транспорта неактивна." style="whiteSpace=wrap;html=1;rounded=1;labelBackgroundColor=none;fillColor=#EEEEEE;strokeColor=#FFFFFF;fontColor=#1A1A1A;" parent="1" vertex="1">
          <mxGeometry x="-730" y="130" width="260" height="130" as="geometry" />
        </mxCell>
        <mxCell id="ywmePfMpzFRgb4OI0cGg-248" value="Если выбрать режим «Свой», панель видов транспорта активна — можно переключать. Под каждый вид транспорта строится маршрут; рассчитывается время и стоимость поездки." style="rounded=1;whiteSpace=wrap;html=1;labelBackgroundColor=none;fillColor=#EEEEEE;strokeColor=#FFFFFF;fontColor=#1A1A1A;" parent="1" vertex="1">
          <mxGeometry x="-730" y="270" width="260" height="130" as="geometry" />
        </mxCell>
        <mxCell id="ywmePfMpzFRgb4OI0cGg-252" value="Масштабирование" style="whiteSpace=wrap;html=1;rounded=1;labelBackgroundColor=none;fillColor=#EEEEEE;strokeColor=#FFFFFF;fontColor=#1A1A1A;" parent="1" vertex="1">
          <mxGeometry x="-180" y="410" width="120" height="60" as="geometry" />
        </mxCell>
        <mxCell id="ywmePfMpzFRgb4OI0cGg-254" value="Выбор объектов" style="rounded=1;whiteSpace=wrap;html=1;labelBackgroundColor=none;fillColor=#EEEEEE;strokeColor=#FFFFFF;fontColor=#1A1A1A;" parent="1" vertex="1">
          <mxGeometry x="-180" y="525" width="120" height="60" as="geometry" />
        </mxCell>
      </root>
    </mxGraphModel>
  </diagram>
</mxfile>
